<svg width="22" height="22" viewBox="0 0 22 22" fill="none" xmlns="http://www.w3.org/2000/svg">
<path d="M18.1328 18.8208C17.1555 19.8 15.9914 20.5723 14.7099 21.0917C13.4283 21.611 12.0555 21.8669 10.6732 21.8439C9.29889 21.8705 7.93359 21.6161 6.66077 21.0963C5.38795 20.5765 4.23437 19.8023 3.27055 18.8208C2.28423 17.8592 1.50607 16.7046 0.98447 15.4289C0.462875 14.1532 0.209006 12.7836 0.238656 11.4054C0.238656 8.3875 1.24929 5.87342 3.27055 3.8632C4.23503 2.88318 5.38891 2.11034 6.66169 1.5919C7.93448 1.07345 9.29945 0.820285 10.6732 0.847858C12.055 0.823931 13.4275 1.07855 14.709 1.59656C15.9905 2.11458 17.1548 2.88541 18.1328 3.8632C20.2006 5.87342 21.2345 8.3875 21.2345 11.4054C21.2613 12.7895 20.9992 14.164 20.4651 15.4409C19.931 16.7178 19.1366 17.869 18.1328 18.8208Z" fill="#C8C8C8"/>
<path d="M10.7361 4.14587L6.53613 11.3031L10.7361 9.34171V4.14587Z" fill="#8B8B8B"/>
<path d="M10.7361 9.34167L6.53613 11.3031L10.7361 13.8512V9.34167Z" fill="#393939"/>
<path d="M10.7363 4.14587V9.34171L14.9323 11.3031L10.7363 4.14587Z" fill="#343434"/>
<path d="M10.7363 9.34167V13.8512L14.9323 11.3031L10.7363 9.34167Z" fill="#161616"/>
<path d="M6.53613 12.12L10.7361 18.1991V14.6702L6.53613 12.12Z" fill="#8B8B8B"/>
<path d="M14.9363 12.12L10.7363 14.6702V18.1991L14.9363 12.12Z" fill="#343434"/>
</svg>
