<svg width="22" height="22" viewBox="0 0 22 22" fill="none" xmlns="http://www.w3.org/2000/svg">
<path d="M21.2666 11.3458C21.2666 17.1448 16.5656 21.8458 10.7666 21.8458C4.96761 21.8458 0.266602 17.1448 0.266602 11.3458C0.266602 5.54684 4.96761 0.845825 10.7666 0.845825C16.5656 0.845825 21.2666 5.54684 21.2666 11.3458Z" fill="#0C192B"/>
<path d="M10.2666 5.84583L7.44732 9.70983L6.2666 15.4218L10.2666 17.8458L14.2666 15.4218L13.0618 9.68583L10.2666 5.84583ZM6.9172 15.1578L7.80877 10.8138L9.83287 16.9338L6.9172 15.1578ZM8.09793 9.82983L10.2666 6.85383L12.4353 9.82983L10.2666 16.3578L8.09793 9.82983ZM10.6762 16.9338L12.7003 10.8138L13.5919 15.1578L10.6762 16.9338Z" fill="white"/>
</svg>
